<mxfile host="app.diagrams.net" modified="2023-04-21T10:38:06.205Z" agent="Mozilla/5.0 (Windows NT 10.0; Win64; x64) AppleWebKit/537.36 (KHTML, like Gecko) Chrome/112.0.0.0 Safari/537.36 Edg/112.0.1722.46" etag="sfm9WgWuoqT8UaCUnlky" version="21.2.1" type="github">
  <diagram name="第 1 页" id="g3KXtieOOxCh1MCoZwCN">
    <mxGraphModel dx="529" dy="468" grid="1" gridSize="10" guides="1" tooltips="1" connect="1" arrows="1" fold="1" page="1" pageScale="1" pageWidth="827" pageHeight="1169" math="0" shadow="0">
      <root>
        <mxCell id="0" />
        <mxCell id="1" parent="0" />
        <mxCell id="UTOsZwBSe-IImrIxmHyV-1" value="毕业生" style="shape=umlActor;verticalLabelPosition=bottom;verticalAlign=top;html=1;" vertex="1" parent="1">
          <mxGeometry x="140" y="100" width="30" height="60" as="geometry" />
        </mxCell>
        <mxCell id="UTOsZwBSe-IImrIxmHyV-2" value="注册/登录" style="ellipse;whiteSpace=wrap;html=1;" vertex="1" parent="1">
          <mxGeometry x="280" y="50" width="90" height="40" as="geometry" />
        </mxCell>
        <mxCell id="UTOsZwBSe-IImrIxmHyV-6" value="修改信息" style="ellipse;whiteSpace=wrap;html=1;" vertex="1" parent="1">
          <mxGeometry x="420" y="80" width="90" height="40" as="geometry" />
        </mxCell>
        <mxCell id="UTOsZwBSe-IImrIxmHyV-7" value="找回密码" style="ellipse;whiteSpace=wrap;html=1;" vertex="1" parent="1">
          <mxGeometry x="280" y="190" width="90" height="40" as="geometry" />
        </mxCell>
        <mxCell id="UTOsZwBSe-IImrIxmHyV-8" value="用户权限分配" style="ellipse;whiteSpace=wrap;html=1;" vertex="1" parent="1">
          <mxGeometry x="420" y="160" width="90" height="40" as="geometry" />
        </mxCell>
        <mxCell id="UTOsZwBSe-IImrIxmHyV-9" value="帖子分类管理" style="ellipse;whiteSpace=wrap;html=1;" vertex="1" parent="1">
          <mxGeometry x="430" y="310" width="90" height="40" as="geometry" />
        </mxCell>
        <mxCell id="UTOsZwBSe-IImrIxmHyV-10" value="发布帖子" style="ellipse;whiteSpace=wrap;html=1;" vertex="1" parent="1">
          <mxGeometry x="280" y="270" width="90" height="40" as="geometry" />
        </mxCell>
        <mxCell id="UTOsZwBSe-IImrIxmHyV-11" value="编辑帖子" style="ellipse;whiteSpace=wrap;html=1;" vertex="1" parent="1">
          <mxGeometry x="280" y="330" width="90" height="40" as="geometry" />
        </mxCell>
        <mxCell id="UTOsZwBSe-IImrIxmHyV-12" value="删除帖子" style="ellipse;whiteSpace=wrap;html=1;" vertex="1" parent="1">
          <mxGeometry x="280" y="390" width="90" height="40" as="geometry" />
        </mxCell>
        <mxCell id="UTOsZwBSe-IImrIxmHyV-13" value="评论" style="ellipse;whiteSpace=wrap;html=1;" vertex="1" parent="1">
          <mxGeometry x="430" y="360" width="90" height="40" as="geometry" />
        </mxCell>
        <mxCell id="UTOsZwBSe-IImrIxmHyV-14" value="提交调查问卷" style="ellipse;whiteSpace=wrap;html=1;" vertex="1" parent="1">
          <mxGeometry x="280" y="545" width="90" height="40" as="geometry" />
        </mxCell>
        <mxCell id="UTOsZwBSe-IImrIxmHyV-15" value="设计调查问卷" style="ellipse;whiteSpace=wrap;html=1;" vertex="1" parent="1">
          <mxGeometry x="413" y="450" width="90" height="40" as="geometry" />
        </mxCell>
        <mxCell id="UTOsZwBSe-IImrIxmHyV-16" value="发布调查问卷" style="ellipse;whiteSpace=wrap;html=1;" vertex="1" parent="1">
          <mxGeometry x="510" y="490" width="90" height="40" as="geometry" />
        </mxCell>
        <mxCell id="UTOsZwBSe-IImrIxmHyV-17" value="填写调查问卷" style="ellipse;whiteSpace=wrap;html=1;" vertex="1" parent="1">
          <mxGeometry x="280" y="474" width="90" height="40" as="geometry" />
        </mxCell>
        <mxCell id="UTOsZwBSe-IImrIxmHyV-18" value="统计分析调查结果" style="ellipse;whiteSpace=wrap;html=1;" vertex="1" parent="1">
          <mxGeometry x="506.5" y="562" width="97" height="46" as="geometry" />
        </mxCell>
        <mxCell id="UTOsZwBSe-IImrIxmHyV-19" value="生成调查报告" style="ellipse;whiteSpace=wrap;html=1;" vertex="1" parent="1">
          <mxGeometry x="413" y="514" width="90" height="40" as="geometry" />
        </mxCell>
        <mxCell id="UTOsZwBSe-IImrIxmHyV-20" value="站点管理(公告栏、轮播图)" style="ellipse;whiteSpace=wrap;html=1;" vertex="1" parent="1">
          <mxGeometry x="280" y="640" width="100" height="40" as="geometry" />
        </mxCell>
        <mxCell id="UTOsZwBSe-IImrIxmHyV-21" value="数据备份恢复" style="ellipse;whiteSpace=wrap;html=1;" vertex="1" parent="1">
          <mxGeometry x="430" y="640" width="90" height="40" as="geometry" />
        </mxCell>
        <mxCell id="UTOsZwBSe-IImrIxmHyV-22" value="日志记录" style="ellipse;whiteSpace=wrap;html=1;" vertex="1" parent="1">
          <mxGeometry x="360" y="700" width="90" height="40" as="geometry" />
        </mxCell>
        <mxCell id="UTOsZwBSe-IImrIxmHyV-23" value="毕业生" style="shape=umlActor;verticalLabelPosition=bottom;verticalAlign=top;html=1;" vertex="1" parent="1">
          <mxGeometry x="573.5" y="110" width="30" height="60" as="geometry" />
        </mxCell>
        <mxCell id="UTOsZwBSe-IImrIxmHyV-24" value="查看岗位推荐" style="ellipse;whiteSpace=wrap;html=1;" vertex="1" parent="1">
          <mxGeometry x="285" y="810" width="90" height="40" as="geometry" />
        </mxCell>
        <mxCell id="UTOsZwBSe-IImrIxmHyV-25" value="查看公告栏" style="ellipse;whiteSpace=wrap;html=1;" vertex="1" parent="1">
          <mxGeometry x="430" y="810" width="90" height="40" as="geometry" />
        </mxCell>
        <mxCell id="UTOsZwBSe-IImrIxmHyV-26" value="查看轮播图" style="ellipse;whiteSpace=wrap;html=1;" vertex="1" parent="1">
          <mxGeometry x="350" y="870" width="90" height="40" as="geometry" />
        </mxCell>
      </root>
    </mxGraphModel>
  </diagram>
</mxfile>
